custom-analysis
version=1
nRows=5
nColumns=98
inDegrees=no

This file contains tibia displacement and acting force.

Units are S.I. units (seconds, meters, Newtons, ...)
Angles are in degrees.

endheader
time	APT	SIT	knee_angle	aACL_R_force	pACL_R_force	aPCL_R_force	pPCL_R_force	aMCL_R_force	mMCL_R_force	pMCL_R_force	aLCL_R_force	mLCL_R_force	pLCL_R_force	aPCL_L_force	pPCL_L_force	aMCL_L_force	aLCL_L_force	aACL_R_length	pACL_R_length	aPCL_R_length	pPCL_R_length	aMCL_R_length	mMCL_R_length	pMCL_R_length	aLCL_R_length	mLCL_R_length	pLCL_R_length	aPCL_L_length	pPCL_L_length	aMCL_L_length	aLCL_L_length	aACL_R_strain	pACL_R_strain	aPCL_R_strain	pPCL_R_strain	aMCL_R_strain	mMCL_R_strain	pMCL_R_strain	aLCL_R_strain	mLCL_R_strain	pLCL_R_strain	aPCL_L_strain	pPCL_L_strain	aMCL_L_strain	aLCL_L_strain	femur_lat_meniscii_r.femur_lat_r.force.X	femur_lat_meniscii_r.femur_lat_r.force.Y	femur_lat_meniscii_r.femur_lat_r.force.Z	femur_lat_meniscii_r.femur_lat_r.torque.X	femur_lat_meniscii_r.femur_lat_r.torque.Y	femur_lat_meniscii_r.femur_lat_r.torque.Z	femur_lat_meniscii_r.meniscus_lat_r.force.X	femur_lat_meniscii_r.meniscus_lat_r.force.Y	femur_lat_meniscii_r.meniscus_lat_r.force.Z	femur_lat_meniscii_r.meniscus_lat_r.torque.X	femur_lat_meniscii_r.meniscus_lat_r.torque.Y	femur_lat_meniscii_r.meniscus_lat_r.torque.Z	femur_med_meniscii_r.femur_med_r.force.X	femur_med_meniscii_r.femur_med_r.force.Y	femur_med_meniscii_r.femur_med_r.force.Z	femur_med_meniscii_r.femur_med_r.torque.X	femur_med_meniscii_r.femur_med_r.torque.Y	femur_med_meniscii_r.femur_med_r.torque.Z	femur_med_meniscii_r.meniscus_med_r.force.X	femur_med_meniscii_r.meniscus_med_r.force.Y	femur_med_meniscii_r.meniscus_med_r.force.Z	femur_med_meniscii_r.meniscus_med_r.torque.X	femur_med_meniscii_r.meniscus_med_r.torque.Y	femur_med_meniscii_r.meniscus_med_r.torque.Z	femur_med_tibia_r.tibia_upper_r.force.X	femur_med_tibia_r.tibia_upper_r.force.Y	femur_med_tibia_r.tibia_upper_r.force.Z	femur_med_tibia_r.tibia_upper_r.torque.X	femur_med_tibia_r.tibia_upper_r.torque.Y	femur_med_tibia_r.tibia_upper_r.torque.Z	femur_med_tibia_r.femur_med_r.force.X	femur_med_tibia_r.femur_med_r.force.Y	femur_med_tibia_r.femur_med_r.force.Z	femur_med_tibia_r.femur_med_r.torque.X	femur_med_tibia_r.femur_med_r.torque.Y	femur_med_tibia_r.femur_med_r.torque.Z	femur_lat_tibia_r.tibia_upper_r.force.X	femur_lat_tibia_r.tibia_upper_r.force.Y	femur_lat_tibia_r.tibia_upper_r.force.Z	femur_lat_tibia_r.tibia_upper_r.torque.X	femur_lat_tibia_r.tibia_upper_r.torque.Y	femur_lat_tibia_r.tibia_upper_r.torque.Z	femur_lat_tibia_r.femur_lat_r.force.X	femur_lat_tibia_r.femur_lat_r.force.Y	femur_lat_tibia_r.femur_lat_r.force.Z	femur_lat_tibia_r.femur_lat_r.torque.X	femur_lat_tibia_r.femur_lat_r.torque.Y	femur_lat_tibia_r.femur_lat_r.torque.Z	femur_lat_meniscii_force_r	femur_med_meniscii_force_r	femur_lat_tibia_force_r	femur_med_tibia_force_r
      0.49798925	      0.00281607	     -0.00024787	     20.00008554	     48.56429259	     35.56991763	      0.00000000	      0.00000000	      0.00000000	      1.02781568	      4.87225410	      0.35622263	      0.00000000	      0.00000000	      0.00000000	      0.00000000	      0.00000001	      0.00000000	      0.03349773	      0.02678527	      0.03053818	      0.02984404	      0.05689431	      0.05983058	      0.06004607	      0.05614752	      0.05354725	      0.05048886	      0.01525851	      0.01651186	      0.06550154	      0.04489616	      0.08038031	      0.06890117	     -0.01791638	     -0.00146422	     -0.05218809	      0.00062020	      0.02244359	      0.00304272	     -0.04920837	     -0.03541741	      0.00000079	     -0.32847694	      0.00000060	     -0.00000086	     51.11851909	     79.70950546	     18.83702434	     -9.73947000	      1.24674576	     21.17820680	    -51.11851909	    -79.70950546	    -18.83702434	      2.64937690	     -1.46980658	     -0.99374879	     33.67968038	     40.99702509	     14.34612532	     -4.98364895	     -0.82915393	     13.99824295	    -33.67968038	    -40.99702509	    -14.34612532	     -0.44929230	      0.66811490	     -0.78339629	      0.00000000	      0.00000000	      0.00000000	      0.00000000	      0.00000000	      0.00000000	      0.00000000	      0.00000000	      0.00000000	      0.00000000	      0.00000000	      0.00000000	      0.00000000	      0.00000000	      0.00000000	      0.00000000	      0.00000000	      0.00000000	      0.00000000	      0.00000000	      0.00000000	      0.00000000	      0.00000000	      0.00000000	     96.54813173	     54.96260774	      0.00000000	      0.00000000
      0.49918928	      0.00281802	     -0.00024858	     20.00008554	     48.56219570	     35.55911533	      0.00000000	      0.00000000	      0.00000000	      1.02562301	      4.87408097	      0.43911358	      0.00000000	      0.00000000	      0.00000000	      0.00000000	      0.00000001	      0.00000000	      0.03349803	      0.02678515	      0.03053874	      0.02984474	      0.05689605	      0.05983227	      0.06004786	      0.05614797	      0.05354779	      0.05048943	      0.01525851	      0.01651186	      0.06550154	      0.04489616	      0.08039004	      0.06889643	     -0.01789865	     -0.00144068	     -0.05215905	      0.00064842	      0.02247418	      0.00305073	     -0.04919893	     -0.03540651	      0.00000079	     -0.32847694	      0.00000060	     -0.00000086	     51.10780540	     79.80861802	     18.82152095	     -9.73545048	      1.24627434	     21.17320380	    -51.10780540	    -79.80861802	    -18.82152095	      2.65119329	     -1.46906194	     -0.99198630	     33.66132246	     41.05248939	     14.36659367	     -4.99076000	     -0.82891846	     13.99067756	    -33.66132246	    -41.05248939	    -14.36659367	     -0.45008586	      0.66785317	     -0.78238323	      0.00000000	      0.00000000	      0.00000000	      0.00000000	      0.00000000	      0.00000000	      0.00000000	      0.00000000	      0.00000000	      0.00000000	      0.00000000	      0.00000000	      0.00000000	      0.00000000	      0.00000000	      0.00000000	      0.00000000	      0.00000000	      0.00000000	      0.00000000	      0.00000000	      0.00000000	      0.00000000	      0.00000000	     96.62128613	     54.99809568	      0.00000000	      0.00000000
      0.50405432	      0.00282391	     -0.00025207	     20.00008554	     48.66431530	     35.64243565	      0.00000000	      0.00000000	      0.00000000	      1.07338351	      4.94032664	      0.80494596	      0.00000000	      0.00000000	      0.00000000	      0.00000000	      0.00000001	      0.00000000	      0.03349928	      0.02678496	      0.03054210	      0.02984861	      0.05690308	      0.05983911	      0.06005505	      0.05615085	      0.05355094	      0.05049272	      0.01525851	      0.01651186	      0.06550154	      0.04489616	      0.08043027	      0.06888878	     -0.01779052	     -0.00131135	     -0.05204195	      0.00076286	      0.02259662	      0.00310220	     -0.04914297	     -0.03534360	      0.00000079	     -0.32847694	      0.00000060	     -0.00000086	     50.97678744	     79.74495837	     18.67782680	     -9.67329313	      1.24179020	     21.11834369	    -50.97678744	    -79.74495837	    -18.67782680	      2.64302340	     -1.46276712	     -0.98739565	     33.79284312	     41.67090487	     14.42979070	     -4.99955319	     -0.83382501	     14.04922042	    -33.79284312	    -41.67090487	    -14.42979070	     -0.46504352	      0.67243557	     -0.78572218	      0.00000000	      0.00000000	      0.00000000	      0.00000000	      0.00000000	      0.00000000	      0.00000000	      0.00000000	      0.00000000	      0.00000000	      0.00000000	      0.00000000	      0.00000000	      0.00000000	      0.00000000	      0.00000000	      0.00000000	      0.00000000	      0.00000000	      0.00000000	      0.00000000	      0.00000000	      0.00000000	      0.00000000	     96.47151112	     55.55753250	      0.00000000	      0.00000000
      0.50622224	      0.00282574	     -0.00025406	     20.00008554	     48.70144233	     35.67308474	      0.00000000	      0.00000000	      0.00000000	      1.03877950	      4.91747945	      0.88054976	      0.00000000	      0.00000000	      0.00000000	      0.00000000	      0.00000001	      0.00000000	      0.03350012	      0.02678529	      0.03054411	      0.02985080	      0.05690629	      0.05984227	      0.06005832	      0.05615273	      0.05355291	      0.05049474	      0.01525851	      0.01651186	      0.06550154	      0.04489616	      0.08045726	      0.06890182	     -0.01772578	     -0.00123808	     -0.05198840	      0.00081557	      0.02265220	      0.00313574	     -0.04910799	     -0.03530497	      0.00000079	     -0.32847694	      0.00000060	     -0.00000086	     50.90259091	     79.67044104	     18.60695960	     -9.64156904	      1.23953471	     21.08739022	    -50.90259091	    -79.67044104	    -18.60695960	      2.63796495	     -1.45965720	     -0.98529629	     33.74667239	     41.62624480	     14.41118512	     -4.99247444	     -0.83341288	     14.03053144	    -33.74667239	    -41.62624480	    -14.41118512	     -0.46527541	      0.67237773	     -0.78497367	      0.00000000	      0.00000000	      0.00000000	      0.00000000	      0.00000000	      0.00000000	      0.00000000	      0.00000000	      0.00000000	      0.00000000	      0.00000000	      0.00000000	      0.00000000	      0.00000000	      0.00000000	      0.00000000	      0.00000000	      0.00000000	      0.00000000	      0.00000000	      0.00000000	      0.00000000	      0.00000000	      0.00000000	     96.35700225	     55.49112010	      0.00000000	      0.00000000
      0.51197969	      0.00282945	     -0.00025901	     20.00008554	     48.75451925	     35.69954069	      0.00000000	      0.00000000	      0.00000000	      0.85160368	      4.76895922	      0.91914979	      0.00000000	      0.00000000	      0.00000000	      0.00000000	      0.00000001	      0.00000000	      0.03350215	      0.02678620	      0.03054940	      0.02985644	      0.05691380	      0.05984963	      0.06006593	      0.05615796	      0.05355834	      0.05050030	      0.01525851	      0.01651186	      0.06550154	      0.04489616	      0.08052274	      0.06893812	     -0.01755578	     -0.00104929	     -0.05186337	      0.00093875	      0.02278181	      0.00322912	     -0.04901152	     -0.03519887	      0.00000079	     -0.32847694	      0.00000060	     -0.00000086	     50.74325086	     79.46860764	     18.52961419	     -9.60403162	      1.23467854	     21.02088924	    -50.74325086	    -79.46860764	    -18.52961419	      2.62882453	     -1.45344499	     -0.98109000	     33.53716261	     41.46853359	     14.41688281	     -4.99798097	     -0.82933222	     13.94454401	    -33.53716261	    -41.46853359	    -14.41688281	     -0.46272885	      0.66895328	     -0.78029795	      0.00000000	      0.00000000	      0.00000000	      0.00000000	      0.00000000	      0.00000000	      0.00000000	      0.00000000	      0.00000000	      0.00000000	      0.00000000	      0.00000000	      0.00000000	      0.00000000	      0.00000000	      0.00000000	      0.00000000	      0.00000000	      0.00000000	      0.00000000	      0.00000000	      0.00000000	      0.00000000	      0.00000000	     96.09101785	     55.24696430	      0.00000000	      0.00000000
